<?xml version="1.0" encoding="UTF-8"?>
<!DOCTYPE svg PUBLIC "-//W3C//DTD SVG 1.1//EN" "http://www.w3.org/Graphics/SVG/1.1/DTD/svg11.dtd">
<svg xmlns="http://www.w3.org/2000/svg" version="1.1" width="100px" height="100px" style="shape-rendering:geometricPrecision; text-rendering:geometricPrecision; image-rendering:optimizeQuality; fill-rule:evenodd; clip-rule:evenodd" xmlns:xlink="http://www.w3.org/1999/xlink">
<g><path style="opacity:1" fill="#b5434b" d="M 61.5,23.5 C 61.5,24.8333 61.5,26.1667 61.5,27.5C 64.8333,27.5 68.1667,27.5 71.5,27.5C 71.5,32.5 71.5,37.5 71.5,42.5C 70.2719,43.3065 69.2719,44.3065 68.5,45.5C 68.5,40.1667 68.5,34.8333 68.5,29.5C 61.6263,29.2388 54.9597,30.2388 48.5,32.5C 52.2354,28.7857 56.5688,25.7857 61.5,23.5 Z"/></g>
<g><path style="opacity:0.898" fill="#f18f96" d="M 45.5,23.5 C 43.8984,25.0739 41.8984,25.7406 39.5,25.5C 41.2143,24.2616 43.2143,23.595 45.5,23.5 Z"/></g>
<g><path style="opacity:0.761" fill="#cc9096" d="M 58.5,20.5 C 59.5676,19.5655 60.901,19.2322 62.5,19.5C 62.5,21.8333 62.5,24.1667 62.5,26.5C 65.8333,26.5 69.1667,26.5 72.5,26.5C 72.8284,38.6783 72.4951,50.6783 71.5,62.5C 71.5,55.8333 71.5,49.1667 71.5,42.5C 71.5,37.5 71.5,32.5 71.5,27.5C 68.1667,27.5 64.8333,27.5 61.5,27.5C 61.5,26.1667 61.5,24.8333 61.5,23.5C 61.5,22.5 61.5,21.5 61.5,20.5C 60.5,20.5 59.5,20.5 58.5,20.5 Z"/></g>
<g><path style="opacity:1" fill="#d13742" d="M 45.5,23.5 C 45.8333,23.5 46.1667,23.5 46.5,23.5C 47.552,23.3505 48.552,23.5172 49.5,24C 46.3206,25.5576 43.3206,27.3909 40.5,29.5C 39.9682,31.7411 38.6349,33.2411 36.5,34C 37.4132,35.4139 37.4132,36.9139 36.5,38.5C 35.5,38.5 34.5,38.5 33.5,38.5C 29.4222,31.1195 31.4222,26.7862 39.5,25.5C 41.8984,25.7406 43.8984,25.0739 45.5,23.5 Z"/></g>
<g><path style="opacity:1" fill="#a92b34" d="M 58.5,20.5 C 59.5,20.5 60.5,20.5 61.5,20.5C 61.5,21.5 61.5,22.5 61.5,23.5C 56.5688,25.7857 52.2354,28.7857 48.5,32.5C 47.209,32.2627 46.209,32.596 45.5,33.5C 44.0222,33.238 42.6888,33.5713 41.5,34.5C 40.3954,36.6114 38.7288,37.9447 36.5,38.5C 37.4132,36.9139 37.4132,35.4139 36.5,34C 38.6349,33.2411 39.9682,31.7411 40.5,29.5C 43.3206,27.3909 46.3206,25.5576 49.5,24C 48.552,23.5172 47.552,23.3505 46.5,23.5C 50.2393,21.8984 54.2393,20.8984 58.5,20.5 Z"/></g>
<g><path style="opacity:0.498" fill="#a7a2ae" d="M 45.5,33.5 C 46.209,32.596 47.209,32.2627 48.5,32.5C 49.5,33.1667 50.5,33.8333 51.5,34.5C 51.1667,34.5 50.8333,34.5 50.5,34.5C 49.0413,34.5674 47.7079,34.2341 46.5,33.5C 46.1667,33.5 45.8333,33.5 45.5,33.5 Z"/></g>
<g><path style="opacity:1" fill="#803b53" d="M 45.5,33.5 C 45.8333,33.5 46.1667,33.5 46.5,33.5C 45.075,34.922 44.075,36.5887 43.5,38.5C 41.5,38.8333 39.5,39.1667 37.5,39.5C 36.8333,39.5 36.1667,39.5 35.5,39.5C 34.5084,39.6716 33.8417,39.3382 33.5,38.5C 34.5,38.5 35.5,38.5 36.5,38.5C 38.7288,37.9447 40.3954,36.6114 41.5,34.5C 42.6888,33.5713 44.0222,33.238 45.5,33.5 Z"/></g>
<g><path style="opacity:1" fill="#403a57" d="M 46.5,33.5 C 47.7079,34.2341 49.0413,34.5674 50.5,34.5C 48.918,36.3736 46.918,37.7069 44.5,38.5C 44.1667,38.5 43.8333,38.5 43.5,38.5C 44.075,36.5887 45.075,34.922 46.5,33.5 Z"/></g>
<g><path style="opacity:1" fill="#34516f" d="M 54.5,35.5 C 56.3769,36.6591 56.8769,38.3258 56,40.5C 55.119,43.885 52.9523,45.5517 49.5,45.5C 48.209,45.7373 47.209,45.404 46.5,44.5C 48.2091,40.4676 50.8758,37.4676 54.5,35.5 Z"/></g>
<g><path style="opacity:1" fill="#59b0bd" d="M 35.5,39.5 C 36.1667,39.5 36.8333,39.5 37.5,39.5C 37.5086,41.3084 37.0086,42.9751 36,44.5C 33.6755,46.5008 31.8421,48.8342 30.5,51.5C 28.2815,45.9319 29.9482,41.9319 35.5,39.5 Z"/></g>
<g><path style="opacity:1" fill="#2475a9" d="M 50.5,34.5 C 50.8333,34.5 51.1667,34.5 51.5,34.5C 52.791,34.2627 53.791,34.596 54.5,35.5C 50.8758,37.4676 48.2091,40.4676 46.5,44.5C 45.603,45.5981 44.7697,45.5981 44,44.5C 38.798,50.7369 40.298,52.4036 48.5,49.5C 48.8333,49.5 49.1667,49.5 49.5,49.5C 46.9209,51.0252 44.2542,52.3586 41.5,53.5C 38.8728,54.0916 36.2062,54.4249 33.5,54.5C 32.5084,54.6716 31.8417,54.3382 31.5,53.5C 36.47,49.1866 40.8033,44.1866 44.5,38.5C 46.918,37.7069 48.918,36.3736 50.5,34.5 Z"/></g>
<g><path style="opacity:1" fill="#399cbe" d="M 43.5,38.5 C 43.8333,38.5 44.1667,38.5 44.5,38.5C 40.8033,44.1866 36.47,49.1866 31.5,53.5C 30.6618,53.1583 30.3284,52.4916 30.5,51.5C 31.8421,48.8342 33.6755,46.5008 36,44.5C 37.0086,42.9751 37.5086,41.3084 37.5,39.5C 39.5,39.1667 41.5,38.8333 43.5,38.5 Z"/></g>
<g><path style="opacity:1" fill="#587fa2" d="M 46.5,44.5 C 47.209,45.404 48.209,45.7373 49.5,45.5C 47.9812,46.4098 46.3146,47.2432 44.5,48C 46.0581,48.21 47.3915,48.71 48.5,49.5C 40.298,52.4036 38.798,50.7369 44,44.5C 44.7697,45.5981 45.603,45.5981 46.5,44.5 Z"/></g>
<g><path style="opacity:1" fill="#469b76" d="M 49.5,49.5 C 53.7746,51.3159 54.6079,54.3159 52,58.5C 46.5514,61.4908 40.7181,63.4908 34.5,64.5C 36.8926,60.5977 39.8926,57.0977 43.5,54C 42.9056,53.5357 42.2389,53.369 41.5,53.5C 44.2542,52.3586 46.9209,51.0252 49.5,49.5 Z"/></g>
<g><path style="opacity:0.995" fill="#525491" d="M 71.5,42.5 C 71.5,49.1667 71.5,55.8333 71.5,62.5C 71.7373,63.791 71.404,64.791 70.5,65.5C 68.8041,67.129 67.8041,66.7957 67.5,64.5C 68.418,58.2252 68.7513,51.8918 68.5,45.5C 69.2719,44.3065 70.2719,43.3065 71.5,42.5 Z"/></g>
<g><path style="opacity:1" fill="#e3d947" d="M 24.5,60.5 C 25.0347,58.5544 26.368,57.5544 28.5,57.5C 30.5753,57.3016 32.5753,57.1349 34.5,57C 31.3866,59.9602 28.22,62.7935 25,65.5C 24.5065,63.8659 24.3398,62.1992 24.5,60.5 Z"/></g>
<g><path style="opacity:1" fill="#c4ca5b" d="M 33.5,55.5 C 34.8734,55.3433 36.2068,55.51 37.5,56C 33.7974,60.4877 29.4641,63.9877 24.5,66.5C 23.1667,64.5 23.1667,62.5 24.5,60.5C 24.3398,62.1992 24.5065,63.8659 25,65.5C 28.22,62.7935 31.3866,59.9602 34.5,57C 32.5753,57.1349 30.5753,57.3016 28.5,57.5C 29.9303,56.4625 31.597,55.7959 33.5,55.5 Z"/></g>
<g><path style="opacity:1" fill="#95b25f" d="M 41.5,53.5 C 42.2389,53.369 42.9056,53.5357 43.5,54C 39.8926,57.0977 36.8926,60.5977 34.5,64.5C 33.791,65.404 32.791,65.7373 31.5,65.5C 29.9731,65.427 28.9731,66.0937 28.5,67.5C 26.901,67.7678 25.5676,67.4345 24.5,66.5C 29.4641,63.9877 33.7974,60.4877 37.5,56C 36.2068,55.51 34.8734,55.3433 33.5,55.5C 33.5,55.1667 33.5,54.8333 33.5,54.5C 36.2062,54.4249 38.8728,54.0916 41.5,53.5 Z"/></g>
<g><path style="opacity:0.953" fill="#865780" d="M 31.5,65.5 C 32.5274,67.1942 33.8608,68.5275 35.5,69.5C 33.901,69.2322 32.5676,69.5655 31.5,70.5C 30.1667,69.8333 29.1667,68.8333 28.5,67.5C 28.9731,66.0937 29.9731,65.427 31.5,65.5 Z"/></g>
<g><path style="opacity:1" fill="#5a64a0" d="M 35.5,69.5 C 39.7975,70.6546 43.7975,72.3213 47.5,74.5C 49.2191,75.0221 50.5525,76.0221 51.5,77.5C 49.8333,77.5 48.1667,77.5 46.5,77.5C 41.1318,75.7225 36.1318,73.3892 31.5,70.5C 32.5676,69.5655 33.901,69.2322 35.5,69.5 Z"/></g>
<g><path style="opacity:1" fill="#636ca1" d="M 67.5,64.5 C 67.8041,66.7957 68.8041,67.129 70.5,65.5C 69.7974,67.7157 68.4641,69.549 66.5,71C 61.5995,73.4644 56.5995,75.631 51.5,77.5C 50.5525,76.0221 49.2191,75.0221 47.5,74.5C 51.9106,73.3073 56.2439,71.8073 60.5,70C 63.6206,69.0332 65.954,67.1999 67.5,64.5 Z"/></g>
<g><path style="opacity:0.831" fill="#858db5" d="M 46.5,77.5 C 48.1667,77.5 49.8333,77.5 51.5,77.5C 49.8333,80.1667 48.1667,80.1667 46.5,77.5 Z"/></g>
</svg>
